<svg width="79" height="96" viewBox="0 0 79 96" fill="none" xmlns="http://www.w3.org/2000/svg">
<path d="M69.4112 53.8341C68.9775 55.2048 68.4632 56.5469 67.8715 57.8509L73.0013 66.8768L63.4668 77.9406H39.5V0H47.4316L49.7156 10.3832C50.9813 10.8528 52.2208 11.4097 53.4251 12.0504L61.8219 6.45386L73.0399 18.6012L67.8715 27.6936C68.4632 28.9977 68.9775 30.3398 69.4112 31.7104L79 34.1836V51.361L69.4112 53.8341Z" fill="#FF9E22"/>
<path d="M39.5 0V77.9406H16.4987L5.93553 66.9871L11.1285 57.8509C10.5368 56.5469 10.0225 55.2048 9.58885 53.8341L0 51.361V34.1836L9.58885 31.7104C10.0225 30.3398 10.5368 28.9977 11.1285 27.6936L5.96011 18.6012L17.1781 6.45386L25.5749 12.0504C26.7792 11.4097 28.0187 10.8528 29.2844 10.3832L31.5684 0L39.5 0Z" fill="#FFD322"/>
<path d="M66.7111 83.3946V96.0001H39.5V57.0298H42.3633C50.7057 57.0298 58.3722 61.5732 62.87 69.1828C65.3839 73.4334 66.7111 78.3475 66.7111 83.3946Z" fill="#002659"/>
<path d="M39.5 57.0298V96.0001H12.2889V83.3946C12.2889 78.3475 13.6161 73.4334 16.13 69.1828C20.6278 61.5732 28.2943 57.0298 36.6367 57.0298H39.5Z" fill="#39326C"/>
<path d="M56.9467 43.6049C56.9467 54.0205 49.1204 62.4951 39.5 62.4951V24.7129C49.1204 24.7129 56.9467 33.1875 56.9467 43.6049Z" fill="#5F55AE"/>
<path d="M39.5 24.7129V62.4951C29.8796 62.4951 22.0533 54.0205 22.0533 43.6049C22.0533 33.1875 29.8796 24.7129 39.5 24.7129Z" fill="#918EDD"/>
</svg>
