<svg width="79" height="96" viewBox="0 0 79 96" fill="none" xmlns="http://www.w3.org/2000/svg">
<path d="M4.08621 1.71429V10.2857H1.36207C0.609872 10.2857 0 11.0533 0 12V36C0.00332536 39.4043 1.60748 42.483 4.08621 43.8449V94.2857C4.08621 95.2324 4.69608 96 5.44828 96H73.5517C74.3039 96 74.9138 95.2324 74.9138 94.2857V43.8449C77.3925 42.483 78.9967 39.4043 79 36V12C79 11.0533 78.3901 10.2857 77.6379 10.2857H74.9138V1.71429C74.9138 0.767578 74.3039 0 73.5517 0H5.44828C4.69608 0 4.08621 0.767578 4.08621 1.71429ZM10.8966 13.7143V32.5714H2.72414V13.7143H10.8966ZM21.7931 13.7143V32.5714H13.6207V13.7143H21.7931ZM43.5862 13.7143V32.5714H35.4138V13.7143H43.5862ZM65.3793 13.7143V32.5714H57.2069V13.7143H65.3793ZM21.7931 36C21.7931 38.8401 19.9635 41.1429 17.7069 41.1429C15.4503 41.1429 13.6207 38.8401 13.6207 36H21.7931ZM32.6897 36C32.6897 38.8401 30.86 41.1429 28.6034 41.1429C26.3469 41.1429 24.5172 38.8401 24.5172 36H32.6897ZM43.5862 36C43.5862 38.8401 41.7566 41.1429 39.5 41.1429C37.2434 41.1429 35.4138 38.8401 35.4138 36H43.5862ZM54.4828 36C54.4828 38.8401 52.6531 41.1429 50.3966 41.1429C48.14 41.1429 46.3103 38.8401 46.3103 36H54.4828ZM65.3793 36C65.3793 38.8401 63.5497 41.1429 61.2931 41.1429C59.0365 41.1429 57.2069 38.8401 57.2069 36H65.3793ZM54.4828 32.5714H46.3103V13.7143H54.4828V32.5714ZM32.6897 32.5714H24.5172V13.7143H32.6897V32.5714ZM2.72414 36H10.8966C10.8966 38.8401 9.06694 41.1429 6.81035 41.1429C4.55375 41.1429 2.72414 38.8401 2.72414 36ZM6.81035 85.7143H9.53448V82.2857H6.81035V78.8571H23.1552V85.7143H20.431V89.1429H23.1552V92.5714H6.81035V85.7143ZM38.1379 54.8571H25.8793V53.1429C25.8793 52.1961 26.4892 51.4286 27.2414 51.4286H36.7759C37.5281 51.4286 38.1379 52.1961 38.1379 53.1429V54.8571ZM25.8793 58.2857H38.1379V82.2857H25.8793V58.2857ZM25.8793 92.5714V85.7143H38.1379V92.5714H25.8793ZM72.1897 92.5714H40.8621V85.7143H72.1897V92.5714ZM72.1897 82.2857H40.8621V68.5714H72.1897V82.2857ZM72.1897 65.1429H40.8621V51.4286H72.1897V65.1429ZM72.1897 48H39.5C39.1342 47.9992 38.7844 48.185 38.529 48.514C37.9823 48.18 37.3837 48.0042 36.7759 48H27.2414C24.9848 48 23.1552 50.3027 23.1552 53.1429V75.4286H6.81035V44.5714C8.96252 44.5639 10.9837 43.2723 12.2586 41.0901C13.5289 43.2782 15.5534 44.5723 17.7069 44.5723C19.8604 44.5723 21.8849 43.2782 23.1552 41.0901C24.4255 43.2782 26.4499 44.5723 28.6034 44.5723C30.757 44.5723 32.7814 43.2782 34.0517 41.0901C35.322 43.2782 37.3465 44.5723 39.5 44.5723C41.6535 44.5723 43.678 43.2782 44.9483 41.0901C46.2186 43.2782 48.243 44.5723 50.3966 44.5723C52.5501 44.5723 54.5745 43.2782 55.8448 41.0901C57.1151 43.2782 59.1396 44.5723 61.2931 44.5723C63.4466 44.5723 65.4711 43.2782 66.7414 41.0901C68.0163 43.2723 70.0375 44.5639 72.1897 44.5714V48ZM72.1897 41.1429C69.9331 41.1429 68.1035 38.8401 68.1035 36H76.2759C76.2759 38.8401 74.4462 41.1429 72.1897 41.1429ZM76.2759 32.5714H68.1035V13.7143H76.2759V32.5714ZM72.1897 3.42857V10.2857H6.81035V3.42857H72.1897Z" fill="black"/>
<path d="M28.6034 66.8574H31.3275V70.286H28.6034V66.8574Z" fill="black"/>
<path d="M14.9828 49.7144C11.974 49.7144 9.53453 52.7847 9.53453 56.5715C9.53453 60.3583 11.974 63.4286 14.9828 63.4286C17.9916 63.4286 20.4311 60.3583 20.4311 56.5715C20.4311 52.7847 17.9916 49.7144 14.9828 49.7144ZM14.9828 60.0001C13.4784 60.0001 12.2587 58.4649 12.2587 56.5715C12.2587 54.6781 13.4784 53.1429 14.9828 53.1429C16.4872 53.1429 17.7069 54.6781 17.7069 56.5715C17.7069 58.4649 16.4872 60.0001 14.9828 60.0001Z" fill="black"/>
<path d="M49.4335 55.3591L46.7093 58.7877C46.3555 59.2179 46.2132 59.8557 46.3382 60.4551C46.4626 61.0544 46.8344 61.5223 47.3106 61.6788C47.7868 61.8362 48.2936 61.6571 48.6354 61.2118L51.3595 57.7832C51.8756 57.1102 51.8683 56.0413 51.3429 55.38C50.8175 54.7187 49.9682 54.7095 49.4335 55.3591V55.3591Z" fill="black"/>
<path d="M57.6059 55.3591L54.8818 58.7877C54.528 59.2179 54.3856 59.8557 54.5107 60.4551C54.635 61.0544 55.0068 61.5223 55.483 61.6788C55.9592 61.8362 56.466 61.6571 56.8078 61.2118L59.532 57.7832C60.0481 57.1102 60.0407 56.0413 59.5153 55.38C58.9899 54.7187 58.1406 54.7095 57.6059 55.3591V55.3591Z" fill="black"/>
<path d="M65.7783 55.3591L63.0542 58.7877C62.7004 59.2179 62.5581 59.8557 62.6831 60.4551C62.8075 61.0544 63.1792 61.5223 63.6554 61.6788C64.1316 61.8362 64.6384 61.6571 64.9802 61.2118L67.7044 57.7832C68.2205 57.1102 68.2132 56.0413 67.6878 55.38C67.1624 54.7187 66.3131 54.7095 65.7783 55.3591V55.3591Z" fill="black"/>
<path d="M46.7093 78.3548C47.2413 79.0236 48.1033 79.0236 48.6353 78.3548L51.3595 74.9263C51.8756 74.2533 51.8683 73.1844 51.3429 72.5231C50.8174 71.8618 49.9681 71.8526 49.4334 72.5022L46.7093 75.9307C46.1779 76.6004 46.1779 77.6852 46.7093 78.3548V78.3548Z" fill="black"/>
<path d="M55.8449 78.8571C56.206 78.8571 56.5525 78.6763 56.8079 78.3548L59.532 74.9263C60.0481 74.2533 60.0408 73.1844 59.5154 72.5231C58.99 71.8618 58.1407 71.8526 57.606 72.5022L54.8819 75.9307C54.4928 76.4212 54.3757 77.1587 54.5866 77.799C54.7974 78.4394 55.2942 78.8571 55.8449 78.8571V78.8571Z" fill="black"/>
<path d="M64.0173 78.8571C64.3784 78.8571 64.7249 78.6763 64.9803 78.3548L67.7045 74.9263C68.2206 74.2533 68.2133 73.1844 67.6878 72.5231C67.1624 71.8618 66.3131 71.8526 65.7784 72.5022L63.0543 75.9307C62.6652 76.4212 62.5482 77.1587 62.759 77.799C62.9698 78.4394 63.4666 78.8571 64.0173 78.8571V78.8571Z" fill="black"/>
<path d="M9.53453 85.7144H12.2587V89.1429H9.53453V85.7144Z" fill="black"/>
<path d="M12.2585 82.2856H14.9827V85.7142H12.2585V82.2856Z" fill="black"/>
<path d="M14.9827 85.7144H17.7069V89.1429H14.9827V85.7144Z" fill="black"/>
<path d="M17.707 82.2856H20.4311V85.7142H17.707V82.2856Z" fill="black"/>
</svg>
