<svg width="47" height="51" viewBox="0 0 47 51" fill="none" xmlns="http://www.w3.org/2000/svg">
<path d="M2.39276 0.910714V5.46429H0.797586C0.357122 5.46429 0 5.87206 0 6.375V19.125C0.00194723 20.9335 0.941292 22.5691 2.39276 23.2926V50.0893C2.39276 50.5922 2.74988 51 3.19034 51H43.0697C43.5101 51 43.8672 50.5922 43.8672 50.0893V23.2926C45.3187 22.5691 46.2581 20.9335 46.26 19.125V6.375C46.26 5.87206 45.9029 5.46429 45.4624 5.46429H43.8672V0.910714C43.8672 0.407776 43.5101 0 43.0697 0H3.19034C2.74988 0 2.39276 0.407776 2.39276 0.910714ZM6.38069 7.28571V17.3036H1.59517V7.28571H6.38069ZM12.7614 7.28571V17.3036H7.97586V7.28571H12.7614ZM25.5228 7.28571V17.3036H20.7372V7.28571H25.5228ZM38.2841 7.28571V17.3036H33.4986V7.28571H38.2841ZM12.7614 19.125C12.7614 20.6338 11.69 21.8571 10.3686 21.8571C9.04723 21.8571 7.97586 20.6338 7.97586 19.125H12.7614ZM19.1421 19.125C19.1421 20.6338 18.0707 21.8571 16.7493 21.8571C15.4279 21.8571 14.3566 20.6338 14.3566 19.125H19.1421ZM25.5228 19.125C25.5228 20.6338 24.4514 21.8571 23.13 21.8571C21.8086 21.8571 20.7372 20.6338 20.7372 19.125H25.5228ZM31.9034 19.125C31.9034 20.6338 30.8321 21.8571 29.5107 21.8571C28.1893 21.8571 27.1179 20.6338 27.1179 19.125H31.9034ZM38.2841 19.125C38.2841 20.6338 37.2128 21.8571 35.8914 21.8571C34.57 21.8571 33.4986 20.6338 33.4986 19.125H38.2841ZM31.9034 17.3036H27.1179V7.28571H31.9034V17.3036ZM19.1421 17.3036H14.3566V7.28571H19.1421V17.3036ZM1.59517 19.125H6.38069C6.38069 20.6338 5.30932 21.8571 3.98793 21.8571C2.66654 21.8571 1.59517 20.6338 1.59517 19.125ZM3.98793 45.5357H5.5831V43.7143H3.98793V41.8929H13.559V45.5357H11.9638V47.3571H13.559V49.1786H3.98793V45.5357ZM22.3324 29.1429H15.1541V28.2321C15.1541 27.7292 15.5113 27.3214 15.9517 27.3214H21.5348C21.9753 27.3214 22.3324 27.7292 22.3324 28.2321V29.1429ZM15.1541 30.9643H22.3324V43.7143H15.1541V30.9643ZM15.1541 49.1786V45.5357H22.3324V49.1786H15.1541ZM42.2721 49.1786H23.9276V45.5357H42.2721V49.1786ZM42.2721 43.7143H23.9276V36.4286H42.2721V43.7143ZM42.2721 34.6071H23.9276V27.3214H42.2721V34.6071ZM42.2721 25.5H23.13C22.9158 25.4996 22.711 25.5983 22.5614 25.773C22.2413 25.5956 21.8908 25.5022 21.5348 25.5H15.9517C14.6303 25.5 13.559 26.7233 13.559 28.2321V40.0714H3.98793V23.6786C5.24818 23.6746 6.43171 22.9884 7.17828 21.8291C7.92212 22.9915 9.10759 23.679 10.3686 23.679C11.6296 23.679 12.8151 22.9915 13.559 21.8291C14.3028 22.9915 15.4883 23.679 16.7493 23.679C18.0103 23.679 19.1958 22.9915 19.9397 21.8291C20.6835 22.9915 21.869 23.679 23.13 23.679C24.391 23.679 25.5765 22.9915 26.3203 21.8291C27.0642 22.9915 28.2497 23.679 29.5107 23.679C30.7717 23.679 31.9572 22.9915 32.701 21.8291C33.4449 22.9915 34.6304 23.679 35.8914 23.679C37.1524 23.679 38.3379 22.9915 39.0817 21.8291C39.8283 22.9884 41.0118 23.6746 42.2721 23.6786V25.5ZM42.2721 21.8571C40.9507 21.8571 39.8793 20.6338 39.8793 19.125H44.6648C44.6648 20.6338 43.5935 21.8571 42.2721 21.8571ZM44.6648 17.3036H39.8793V7.28571H44.6648V17.3036ZM42.2721 1.82143V5.46429H3.98793V1.82143H42.2721Z" fill="black"/>
<path d="M16.7493 35.5179H18.3444V37.3393H16.7493V35.5179Z" fill="black"/>
<path d="M8.77347 26.4107C7.01162 26.4107 5.58313 28.0418 5.58313 30.0536C5.58313 32.0653 7.01162 33.6964 8.77347 33.6964C10.5353 33.6964 11.9638 32.0653 11.9638 30.0536C11.9638 28.0418 10.5353 26.4107 8.77347 26.4107ZM8.77347 31.875C7.89255 31.875 7.1783 31.0594 7.1783 30.0536C7.1783 29.0477 7.89255 28.2321 8.77347 28.2321C9.6544 28.2321 10.3686 29.0477 10.3686 30.0536C10.3686 31.0594 9.6544 31.875 8.77347 31.875Z" fill="black"/>
<path d="M28.9468 29.4097L27.3516 31.2311C27.1444 31.4597 27.0611 31.7985 27.1343 32.1169C27.2071 32.4353 27.4248 32.6839 27.7036 32.767C27.9825 32.8506 28.2792 32.7555 28.4794 32.5189L30.0746 30.6975C30.3768 30.34 30.3725 29.7721 30.0649 29.4208C29.7572 29.0695 29.2599 29.0646 28.9468 29.4097V29.4097Z" fill="black"/>
<path d="M33.7323 29.4097L32.1371 31.2311C31.9299 31.4597 31.8466 31.7985 31.9198 32.1169C31.9926 32.4353 32.2103 32.6839 32.4892 32.767C32.768 32.8506 33.0648 32.7555 33.2649 32.5189L34.8601 30.6975C35.1623 30.34 35.158 29.7721 34.8504 29.4208C34.5427 29.0695 34.0454 29.0646 33.7323 29.4097V29.4097Z" fill="black"/>
<path d="M38.5178 29.4097L36.9226 31.2311C36.7154 31.4597 36.6321 31.7985 36.7053 32.1169C36.7781 32.4353 36.9958 32.6839 37.2747 32.767C37.5535 32.8506 37.8503 32.7555 38.0505 32.5189L39.6456 30.6975C39.9478 30.34 39.9436 29.7721 39.6359 29.4208C39.3282 29.0695 38.8309 29.0646 38.5178 29.4097V29.4097Z" fill="black"/>
<path d="M27.3515 41.626C27.6631 41.9814 28.1678 41.9814 28.4794 41.626L30.0745 39.8046C30.3768 39.4471 30.3725 38.8792 30.0648 38.5279C29.7572 38.1766 29.2598 38.1717 28.9467 38.5168L27.3515 40.3382C27.0404 40.694 27.0404 41.2703 27.3515 41.626V41.626Z" fill="black"/>
<path d="M32.7011 41.8929C32.9125 41.8929 33.1154 41.7968 33.265 41.626L34.8602 39.8046C35.1624 39.4471 35.1581 38.8792 34.8504 38.5279C34.5428 38.1766 34.0454 38.1717 33.7323 38.5168L32.1371 40.3382C31.9093 40.5988 31.8408 40.9906 31.9642 41.3308C32.0877 41.671 32.3786 41.8929 32.7011 41.8929V41.8929Z" fill="black"/>
<path d="M37.4866 41.8929C37.6981 41.8929 37.901 41.7968 38.0505 41.626L39.6457 39.8046C39.9479 39.4471 39.9436 38.8792 39.6359 38.5279C39.3283 38.1766 38.831 38.1717 38.5178 38.5168L36.9227 40.3382C36.6948 40.5988 36.6263 40.9906 36.7498 41.3308C36.8732 41.671 37.1641 41.8929 37.4866 41.8929V41.8929Z" fill="black"/>
<path d="M5.58313 45.5357H7.1783V47.3571H5.58313V45.5357Z" fill="black"/>
<path d="M7.17822 43.7143H8.7734V45.5357H7.17822V43.7143Z" fill="black"/>
<path d="M8.77344 45.5357H10.3686V47.3571H8.77344V45.5357Z" fill="black"/>
<path d="M10.3687 43.7143H11.9638V45.5357H10.3687V43.7143Z" fill="black"/>
</svg>
