<svg width="76" height="76" viewBox="0 0 76 76" fill="none" xmlns="http://www.w3.org/2000/svg">
<circle cx="38" cy="38" r="38" fill="#D9D9D9"/>
<path d="M57.1333 16H38.5V17.4333H57.1333C57.9249 17.4333 58.5667 18.0751 58.5667 18.8667V56.1333C58.5667 56.9249 57.9249 57.5667 57.1333 57.5667H42.8V59H57.1333C58.7164 59 60 57.7164 60 56.1333V18.8667C60 17.2836 58.7164 16 57.1333 16Z" fill="black"/>
<path d="M47.1 20.3C45.2488 20.3007 43.4872 21.0958 42.2625 22.4836L43.3375 23.4326C45.0847 21.4516 48.0686 21.165 50.1612 22.7768C52.2534 24.389 52.7378 27.3473 51.2684 29.5421C49.799 31.7369 46.8791 32.4165 44.5916 31.0958L43.875 32.3364C46.2234 33.6917 49.1684 33.4338 51.2453 31.6907C53.3221 29.9477 54.0875 27.0922 53.1601 24.5444C52.2328 21.9965 49.8112 20.3004 47.1 20.3Z" fill="black"/>
<path d="M47.1001 30.3333C49.0789 30.3333 50.6834 28.7289 50.6834 26.75C50.6834 24.7711 49.0789 23.1667 47.1001 23.1667C45.1212 23.1667 43.5167 24.7711 43.5167 26.75C43.5192 28.7282 45.1219 30.3309 47.1001 30.3333ZM47.1001 24.6C48.2874 24.6 49.2501 25.5627 49.2501 26.75C49.2501 27.9373 48.2874 28.9 47.1001 28.9C45.9127 28.9 44.9501 27.9373 44.9501 26.75C44.9501 25.5627 45.9127 24.6 47.1001 24.6Z" fill="black"/>
<path d="M47.1 35.35C42.4445 35.3339 38.3947 38.5351 37.3354 43.0685L38.7299 43.3981C39.5782 39.8253 42.6013 37.1854 46.2556 36.8257C49.91 36.4663 53.3894 38.4669 54.9176 41.8056C56.4457 45.1447 55.685 49.0856 53.0241 51.616C50.3635 54.1467 46.3893 54.7087 43.1311 53.0151L42.469 54.2857C46.1629 56.2061 50.6592 55.6452 53.7687 52.8765C56.8783 50.1078 57.9547 45.7067 56.4741 41.8154C54.9935 37.9241 51.2636 35.3514 47.1 35.35Z" fill="black"/>
<path d="M47.1 51.1167C45.6897 51.1177 44.3285 50.5977 43.278 49.6567L42.322 50.7247C44.7313 52.8789 48.2842 53.154 50.9962 51.3966C53.7085 49.6393 54.9088 46.2837 53.9269 43.205C52.9449 40.1259 50.0237 38.0847 46.7948 38.2219C43.566 38.3591 40.8285 40.6403 40.1111 43.7915L41.5087 44.1085C42.1757 41.1834 44.985 39.2672 47.9517 39.714C50.9185 40.1606 53.0391 42.8187 52.8158 45.8103C52.5922 48.8022 50.1 51.116 47.1 51.1167Z" fill="black"/>
<path d="M55.7 18.8667H57.1333V20.3H55.7V18.8667Z" fill="black"/>
<path d="M37.0667 54.7H38.5V56.1333H37.0667V54.7Z" fill="black"/>
<path d="M55.7 54.7H57.1333V56.1333H55.7V54.7Z" fill="black"/>
<path d="M19.15 59H39.2167C40.404 59 41.3667 58.0373 41.3667 56.85V46.8166C41.3667 45.6293 40.404 44.6666 39.2167 44.6666H34.685L33.4326 41.5333C33.3234 41.2614 33.0599 41.083 32.7667 41.0833H25.6C25.3068 41.083 25.0433 41.2614 24.9341 41.5333L23.6817 44.6666H19.15C17.9627 44.6666 17 45.6293 17 46.8166V56.85C17 58.0373 17.9627 59 19.15 59ZM18.4333 46.8166C18.4333 46.4209 18.7542 46.1 19.15 46.1H24.1667C24.4599 46.1003 24.7234 45.9219 24.8326 45.65L26.085 42.5166H32.2817L33.5341 45.65C33.6433 45.9219 33.9068 46.1003 34.2 46.1H39.2167C39.6124 46.1 39.9333 46.4209 39.9333 46.8166V56.85C39.9333 57.2458 39.6124 57.5666 39.2167 57.5666H19.15C18.7542 57.5666 18.4333 57.2458 18.4333 56.85V46.8166Z" fill="black"/>
<path d="M29.1833 56.1333C31.9541 56.1333 34.2 53.8875 34.2 51.1167C34.2 48.3459 31.9541 46.1 29.1833 46.1C26.4125 46.1 24.1666 48.3459 24.1666 51.1167C24.1698 53.8861 26.4139 56.1302 29.1833 56.1333ZM29.1833 47.5333C31.1622 47.5333 32.7666 49.1378 32.7666 51.1167C32.7666 53.0956 31.1622 54.7 29.1833 54.7C27.2044 54.7 25.6 53.0956 25.6 51.1167C25.6024 49.1385 27.2051 47.5358 29.1833 47.5333Z" fill="black"/>
<path d="M20.5834 47.5333H22.0167V48.9666H20.5834V47.5333Z" fill="black"/>
<path d="M35.6333 47.5333H38.5V48.9666H35.6333V47.5333Z" fill="black"/>
<path d="M17.7167 33.2H19.9241C20.2435 35.3972 21.9694 37.1231 24.1667 37.4426V37.5C24.1667 38.6873 25.1293 39.65 26.3167 39.65C27.504 39.65 28.4667 38.6873 28.4667 37.5V27.4667C28.4667 26.2793 27.504 25.3167 26.3167 25.3167C25.1293 25.3167 24.1667 26.2793 24.1667 27.4667V27.5241C23.077 27.6805 22.0695 28.1917 21.3 28.9787V28.9C21.3 24.1503 25.1503 20.3 29.9 20.3C34.6497 20.3 38.5 24.1503 38.5 28.9V28.9787C37.7305 28.1917 36.723 27.6805 35.6333 27.5241V27.4667C35.6333 26.2793 34.6707 25.3167 33.4833 25.3167C32.296 25.3167 31.3333 26.2793 31.3333 27.4667V37.5C31.3333 38.6873 32.296 39.65 33.4833 39.65C34.6707 39.65 35.6333 38.6873 35.6333 37.5V37.4426C37.8306 37.1231 39.5565 35.3972 39.8759 33.2H42.0833C42.4791 33.2 42.8 32.8791 42.8 32.4833V28.9C42.8 21.7757 37.0243 16 29.9 16C22.7757 16 17 21.7757 17 28.9V32.4833C17 32.8791 17.3209 33.2 17.7167 33.2ZM25.6 36.7833V27.4667C25.6 27.0709 25.9209 26.75 26.3167 26.75C26.7124 26.75 27.0333 27.0709 27.0333 27.4667V37.5C27.0333 37.8958 26.7124 38.2167 26.3167 38.2167C25.9209 38.2167 25.6 37.8958 25.6 37.5V36.7833ZM34.2 28.1833V37.5C34.2 37.8958 33.8791 38.2167 33.4833 38.2167C33.0876 38.2167 32.7667 37.8958 32.7667 37.5V27.4667C32.7667 27.0709 33.0876 26.75 33.4833 26.75C33.8791 26.75 34.2 27.0709 34.2 27.4667V28.1833ZM35.6333 35.9949V28.9717C37.3036 29.3108 38.5035 30.7791 38.5035 32.4833C38.5035 34.1875 37.3036 35.6558 35.6333 35.9949ZM24.1667 28.9717V35.9949C22.4964 35.6558 21.2965 34.1875 21.2965 32.4833C21.2965 30.7791 22.4964 29.3108 24.1667 28.9717ZM18.4333 28.9C18.4333 22.5672 23.5672 17.4333 29.9 17.4333C36.2328 17.4333 41.3667 22.5672 41.3667 28.9V31.7667H39.9333V28.9C39.9333 23.3588 35.4412 18.8667 29.9 18.8667C24.3588 18.8667 19.8667 23.3588 19.8667 28.9V31.7667H18.4333V28.9Z" fill="black"/>
</svg>
