<svg width="76" height="76" viewBox="0 0 76 76" fill="none" xmlns="http://www.w3.org/2000/svg">
<circle cx="38" cy="38" r="38" fill="#D9D9D9"/>
<path d="M58.6654 37.4598V32.0409H59.3553C59.7112 32.0409 59.9998 31.7572 59.9998 31.4074V24.8814C59.9998 24.5315 59.7112 24.2478 59.3553 24.2478H58.6654V22.252C58.6654 20.4588 57.1812 19 55.3568 19H31.3931C31.0372 19 30.7486 19.2836 30.7486 19.6335C30.7486 19.9834 31.0372 20.267 31.3931 20.267H55.3568C56.4704 20.267 57.3763 21.1575 57.3763 22.252V24.2478H55.9953V23.5249C55.9953 22.4769 55.1279 21.6244 54.0617 21.6244H21.9383C20.8721 21.6244 20.0047 22.4769 20.0047 23.5249V37.3665H18.6237V22.252C18.6237 21.1575 19.5296 20.267 20.6432 20.267H28.5838C28.9398 20.267 29.2284 19.9834 29.2284 19.6335C29.2284 19.2836 28.9398 19 28.5838 19H20.6432C18.8188 19 17.3346 20.4588 17.3346 22.252V37.4598C16.5607 37.7083 16 38.4244 16 39.267V56.3665C16 56.7164 16.2886 57 16.6445 57H36.7023C37.0583 57 37.3469 56.7164 37.3469 56.3665C37.3469 56.0166 37.0583 55.733 36.7023 55.733H30.6364V54.3756H45.3637V55.733H39.5116C39.1557 55.733 38.8671 56.0166 38.8671 56.3665C38.8671 56.7164 39.1557 57 39.5116 57H59.3555C59.7114 57 60 56.7164 60 56.3665V39.267C60 38.4244 59.4393 37.7083 58.6654 37.4598ZM57.3763 37.3665H55.9953V32.0409H57.3763V37.3665ZM51.266 37.3665V33.386C51.6179 33.3672 51.9916 33.1595 51.9916 32.7525V31.0877C51.9916 30.7137 52.3012 30.4094 52.6817 30.4094C53.0623 30.4094 53.3719 30.7137 53.3719 31.0877C53.3215 31.4909 53.5035 32.0409 54.0164 32.0409H54.7062V37.3665H51.266ZM45.9272 33.386H49.977V37.3665H45.9272V33.386ZM58.7108 30.7739H54.6353C54.4821 29.85 53.6644 29.1424 52.6817 29.1424C51.5903 29.1424 50.7025 30.0151 50.7025 31.0877V32.119H45.3181V31.0275C45.2039 29.8559 44.5506 29.2224 43.3581 29.1269C42.2659 29.1435 41.2343 29.3435 39.9694 30.1523C39.9441 27.733 41.8039 25.5149 44.3803 25.5149H50.7283C50.8814 26.4388 51.6991 27.1463 52.6818 27.1463C53.6645 27.1463 54.4822 26.4388 54.6354 25.5149H58.7109V30.7739H58.7108ZM21.2937 23.5249C21.2937 23.1755 21.5828 22.8914 21.9383 22.8914H54.0617C54.4172 22.8914 54.7062 23.1755 54.7062 23.5249V24.2478H54.0165C53.6606 24.2478 53.372 24.5315 53.372 24.8814C53.4207 25.3084 53.2219 25.8793 52.6818 25.8793C52.1418 25.8793 51.9429 25.3084 51.9917 24.8814C51.9917 24.5315 51.7031 24.2478 51.3471 24.2478H44.3803C41.2812 24.2478 38.6545 26.8427 38.6784 29.8956L38.6903 31.4123C38.8363 32.012 39.1889 32.1724 39.7484 31.8933C41.4001 30.5353 42.4472 30.4079 43.3781 30.3937C43.7745 30.4262 43.9915 30.6374 44.0292 31.0275V32.7525C44.0292 33.0907 44.2989 33.367 44.6383 33.3851V37.3665H33.3057V34.0715C34.9612 32.9865 35.9751 31.1428 35.9751 29.1744C35.9751 27.0815 34.8289 25.1297 32.9838 24.0806C32.4465 23.8973 32.1242 24.0801 32.0166 24.629V28.7913L29.9917 29.7864L27.9669 28.7913V24.629C27.8593 24.0801 27.5369 23.8973 26.9997 24.0806C25.1546 25.1297 24.0084 27.0815 24.0084 29.1744C24.0084 31.1428 25.0223 32.9864 26.6778 34.0715V37.3665H21.2937V23.5249ZM27.645 33.1714C26.197 32.3481 25.2974 30.8166 25.2974 29.1744C25.2974 27.9378 25.8074 26.764 26.6777 25.908V29.1828C26.6777 29.4228 26.8157 29.6422 27.034 29.7494L29.7034 31.0613C29.8848 31.1505 30.0985 31.1505 30.2799 31.0613L32.9493 29.7494C33.1676 29.6421 33.3056 29.4228 33.3056 29.1828V25.908C34.1758 26.764 34.6859 27.9379 34.6859 29.1744C34.6859 30.8166 33.7864 32.3481 32.3384 33.1714C32.1392 33.2847 32.0165 33.4937 32.0165 33.7198V37.3665H27.9667V33.7198C27.9669 33.4937 27.8442 33.2847 27.645 33.1714ZM29.3472 55.7327H22.628V51.7522H29.3472V55.7327ZM53.372 55.7327H46.6528V51.7522H53.372V55.7327ZM58.7109 55.733H54.661V54.3756H56.6863C57.0422 54.3756 57.3308 54.092 57.3308 53.7421V40.6235C57.3308 40.2737 57.0422 39.99 56.6863 39.99H49.3566C49.0007 39.99 48.7121 40.2737 48.7121 40.6235C48.7121 40.9734 49.0007 41.257 49.3566 41.257H56.0417V53.1086H54.661V51.1187C54.661 50.7688 54.3725 50.4851 54.0165 50.4851H46.0083C45.6523 50.4851 45.3637 50.7688 45.3637 51.1187V53.1086H30.6363V51.1187C30.6363 50.7688 30.3477 50.4851 29.9917 50.4851H21.9835C21.6275 50.4851 21.339 50.7688 21.339 51.1187V53.1086H19.9583V41.257H46.5473C46.9033 41.257 47.1919 40.9734 47.1919 40.6235C47.1919 40.2737 46.9033 39.99 46.5473 39.99H19.3138C18.9578 39.99 18.6692 40.2737 18.6692 40.6235V53.7421C18.6692 54.092 18.9578 54.3756 19.3138 54.3756H21.339V55.733H17.2891V39.267C17.2891 38.9176 17.5782 38.6335 17.9336 38.6335H58.0664C58.4218 38.6335 58.7109 38.9176 58.7109 39.267V55.733Z" fill="black"/>
<path d="M44.6736 42.614H31.3265C30.2352 42.614 29.3473 43.4867 29.3473 44.5594C29.3473 45.632 30.2352 46.5047 31.3265 46.5047H44.6736C45.765 46.5047 46.6529 45.632 46.6529 44.5594C46.6529 43.4866 45.765 42.614 44.6736 42.614ZM44.6736 45.2377H31.3265C30.946 45.2377 30.6364 44.9334 30.6364 44.5594C30.6364 44.1853 30.946 43.881 31.3265 43.881H44.6736C45.0542 43.881 45.3638 44.1853 45.3638 44.5594C45.3638 44.9334 45.0542 45.2377 44.6736 45.2377Z" fill="black"/>
<path d="M24.653 54.376H27.3223C27.6783 54.376 27.9669 54.0923 27.9669 53.7424C27.9669 53.3926 27.6783 53.1089 27.3223 53.1089H24.653C24.297 53.1089 24.0084 53.3926 24.0084 53.7424C24.0084 54.0923 24.297 54.376 24.653 54.376Z" fill="black"/>
<path d="M48.6776 54.376H51.347C51.703 54.376 51.9915 54.0923 51.9915 53.7424C51.9915 53.3926 51.703 53.1089 51.347 53.1089H48.6776C48.3217 53.1089 48.0331 53.3926 48.0331 53.7424C48.0331 54.0923 48.3217 54.376 48.6776 54.376Z" fill="black"/>
</svg>
