<svg width="76" height="76" viewBox="0 0 76 76" fill="none" xmlns="http://www.w3.org/2000/svg">
<circle cx="38" cy="38" r="38" fill="#D9D9D9"/>
<path d="M56.8242 38.518H55.0669C52.0354 38.518 49.0521 36.9369 46.4397 33.9452L41.7134 28.5331C39.3776 25.8584 37.4675 21.9869 36.1896 17.3377L35.048 13.1842C34.5285 11.2941 33.3303 10.4843 32.32 11.3409L30.8762 12.5651C30.0999 13.2233 29.5981 14.713 29.5981 16.3601V18.5336C29.5981 19.3932 29.3368 20.1721 28.9323 20.5184C27.1336 22.0576 25.074 21.306 23.6846 18.6037C23.3408 17.9349 22.8836 17.5667 22.3974 17.5667C21.3935 17.5667 20.5769 19.1551 20.5769 21.1072V22.9553C20.5769 24.5129 20.265 25.9774 19.6987 27.0786C18.8889 28.6536 18.4429 30.7475 18.4429 32.9747V42.3502L16.1031 49.3955C16.1 49.4048 16.0976 49.4147 16.0946 49.4241C16.0872 49.4476 16.08 49.471 16.0734 49.4956C16.0695 49.51 16.0662 49.5247 16.0626 49.5392C16.0571 49.5615 16.0518 49.5837 16.047 49.6066C16.0433 49.6241 16.0402 49.642 16.037 49.6597C16.0333 49.6801 16.0296 49.7003 16.0265 49.7212C16.0233 49.742 16.0208 49.7629 16.0182 49.7839C16.016 49.8023 16.0136 49.8207 16.0118 49.8394C16.0094 49.8635 16.0077 49.8875 16.0061 49.9116C16.005 49.928 16.0037 49.9442 16.0029 49.9607C16.0016 49.9877 16.0012 50.0147 16.0009 50.0416C16.0008 50.0528 16 50.064 16 50.0756C16 50.0804 16.0002 50.0853 16.0002 50.0903C16.0002 50.0978 16.0003 50.1053 16.0004 50.1128C16.0108 55.0167 18.0648 59 20.5885 59H52.6447C56.7004 59 60 52.5827 60 44.6947C60 41.2889 58.5753 38.518 56.8242 38.518ZM30.8871 18.5335V16.36C30.8871 15.7103 31.085 15.1228 31.3912 14.8631L32.835 13.6389C33.2334 13.3012 33.7061 13.6206 33.911 14.366L35.0526 18.5196C35.2869 19.3718 35.5423 20.1978 35.8145 20.9998L33.8849 22.4836C32.9562 21.1447 31.861 20.3688 30.7253 20.2174C30.8303 19.6894 30.8871 19.1203 30.8871 18.5335ZM21.8659 22.9551V21.1071C21.8659 20.5373 22.1042 20.0737 22.3974 20.0737C22.5392 20.0737 22.6727 20.1813 22.7731 20.3763C24.5216 23.7771 27.1042 24.7482 29.3747 22.8754L29.4723 22.8413C30.5564 22.4626 31.6552 22.8311 32.5984 23.8512L29.7534 27.2495C27.5464 29.8854 24.8581 30.5675 22.3775 29.1208L20.8896 28.253C21.5217 26.7639 21.8659 24.911 21.8659 22.9551ZM19.732 38.9643H20.5445C21.3831 38.9643 22.0983 40.0101 22.3643 41.466H19.732V38.9643V38.9643ZM48.5796 50.4431H52.746C54.8161 50.4431 56.8152 49.337 58.5673 47.2399C57.9671 52.5255 55.5404 56.4929 52.6447 56.4929H20.5886C18.8304 56.4929 17.3891 53.804 17.2944 50.4294L19.4385 43.9733H24.655C25.6473 43.9733 26.5799 44.7248 27.2815 46.0893L27.6206 46.7487C28.8455 49.1307 30.474 50.4428 32.2061 50.4428H45.754C46.11 50.4428 46.3985 49.8815 46.3985 49.1892C46.3985 48.4969 46.11 47.9357 45.754 47.9357H32.206C31.4282 47.9357 30.6765 47.6051 29.9932 46.979L31.5411 38.9959C31.6667 38.348 31.4986 37.6248 31.1655 37.3806C30.8324 37.1365 30.4606 37.4634 30.335 38.1112L28.8832 45.5982C28.7623 45.4018 28.6448 45.1953 28.5319 44.9758L28.193 44.3166C27.2479 42.4786 25.9914 41.4664 24.6549 41.4664H23.6995C23.4001 38.612 22.0993 36.4575 20.5445 36.4575H19.732V32.975C19.732 32.0586 19.8407 31.1752 20.045 30.3783L22.0072 31.5227C24.8391 33.1742 27.9084 32.3957 30.4279 29.3863L32.5087 26.901L31.2339 33.4751C31.1082 34.1228 31.2764 34.8461 31.6095 35.0903C31.6845 35.1453 31.7613 35.1712 31.8369 35.1712C32.0974 35.1712 32.3427 34.8617 32.4401 34.3598L34.2788 24.8773L36.5919 23.0987C36.7317 23.4444 36.876 23.7827 37.0231 24.1161L34.8362 29.3028C34.6105 29.8381 34.6507 30.628 34.9259 31.0669C35.0459 31.2581 35.1904 31.3512 35.3343 31.3512C35.5207 31.3512 35.7056 31.1948 35.8331 30.8926L37.909 25.969C38.305 26.7322 38.7213 27.4555 39.1569 28.1356L38.1372 34.1107C38.0251 34.7677 38.2081 35.4773 38.546 35.6952C38.6133 35.7387 38.6817 35.7594 38.749 35.7594C39.0192 35.7594 39.2708 35.4264 39.3606 34.9005L40.2486 29.6969C40.5136 30.0434 40.7832 30.3778 41.0593 30.694L41.5634 31.2713L41.3726 37.1747C41.3503 37.8657 41.6202 38.461 41.9755 38.5045C41.9892 38.5062 42.0029 38.507 42.0165 38.507C42.3541 38.507 42.6378 37.9962 42.6593 37.332L42.8091 32.6977L44.3203 34.4283L44.4633 38.9335C44.4843 39.5982 44.7681 40.1099 45.106 40.1099C45.1193 40.1099 45.1328 40.109 45.1463 40.1074C45.5017 40.0647 45.7718 39.4699 45.7498 38.7789L45.6605 35.9628L45.7857 36.1062C46.4458 36.8622 47.1282 37.5332 47.8278 38.1192L47.847 39.8561C47.8545 40.5391 48.1416 41.0828 48.4911 41.0828C48.4958 41.0828 48.5004 41.0828 48.5052 41.0824C48.8611 41.0676 49.1433 40.4945 49.1357 39.8023L49.1279 39.0968C51.0319 40.3676 53.0393 41.0256 55.0669 41.0256H56.8242C57.7561 41.0256 58.5323 42.346 58.684 44.0756L58.3533 44.5222C56.6989 46.7555 54.76 47.936 52.746 47.936H48.5796C48.2236 47.936 47.9351 48.4973 47.9351 49.1896C47.9351 49.8819 48.2236 50.4431 48.5796 50.4431Z" fill="black"/>
<path d="M36.3308 47.7682C36.8083 47.7682 37.1954 47.1176 37.1954 46.3151C37.1954 45.5126 36.8083 44.862 36.3308 44.862C35.8533 44.862 35.4662 45.5126 35.4662 46.3151C35.4662 47.1176 35.8533 47.7682 36.3308 47.7682Z" fill="black"/>
<path d="M36.3308 47.7682C36.8083 47.7682 37.1954 47.1176 37.1954 46.3151C37.1954 45.5126 36.8083 44.862 36.3308 44.862C35.8533 44.862 35.4662 45.5126 35.4662 46.3151C35.4662 47.1176 35.8533 47.7682 36.3308 47.7682Z" fill="black"/>
<path d="M36.3308 47.7682C36.8083 47.7682 37.1954 47.1176 37.1954 46.3151C37.1954 45.5126 36.8083 44.862 36.3308 44.862C35.8533 44.862 35.4662 45.5126 35.4662 46.3151C35.4662 47.1176 35.8533 47.7682 36.3308 47.7682Z" fill="black"/>
</svg>
