<svg width="76" height="76" viewBox="0 0 76 76" fill="none" xmlns="http://www.w3.org/2000/svg">
<circle cx="38" cy="38" r="38" fill="#D9D9D9"/>
<path d="M62.8963 35.5174L58.0127 22.5489C57.8388 22.0874 57.4542 21.7138 56.9575 21.5238L47.5381 17.9216L44.7377 13.386C44.599 13.1519 44.317 12.999 44.0228 13H31.9766C31.6824 12.999 31.4004 13.1519 31.2616 13.386L28.4609 17.922L19.0425 21.5238C18.5458 21.7138 18.1611 22.0874 17.9871 22.549L17.1307 24.8234C16.9863 25.2071 17.2133 25.624 17.6379 25.7545C17.7246 25.7812 17.8128 25.7939 17.8996 25.7939C18.2376 25.7939 18.5532 25.6016 18.6683 25.2963L19.5246 23.0221C19.5495 22.9561 19.6045 22.9027 19.6754 22.8755L20.8422 22.4293C20.8412 22.4321 20.8404 22.4347 20.8395 22.4373C20.73 22.7401 20.849 23.0721 21.1341 23.2592C21.4192 23.4463 21.8052 23.4459 22.0899 23.2582C23.5997 22.2625 25.1146 22.9845 25.7901 23.4184C25.6986 23.6606 25.5494 23.9838 25.3198 24.3046C24.737 25.1189 23.9497 25.5148 22.9133 25.5148C22.9077 25.5148 22.9015 25.5147 22.8964 25.5148C22.5448 25.5148 22.2329 25.7195 22.1242 26.0219C22.0151 26.3252 22.1354 26.6575 22.4217 26.844C23.9399 27.8327 23.649 29.3615 23.4022 30.076C22.5723 30.0689 20.8747 29.8494 20.2999 28.2412C20.1916 27.9383 19.8785 27.7329 19.5261 27.7329C19.1739 27.7329 18.8616 27.9383 18.7534 28.2413C18.5332 28.8575 18.0381 29.5692 16.9364 29.8949L17.6177 28.0854C17.7623 27.7017 17.5353 27.2848 17.1106 27.1542C16.6864 27.0239 16.2248 27.2288 16.0805 27.6125L13.1037 35.5173C12.7394 36.4219 13.3731 37.4939 14.4074 37.7232L21.2343 39.3744V61.2877C21.2343 62.2318 22.0842 63 23.1289 63H52.8711C53.9158 63 54.7657 62.2318 54.7657 61.2877V47.0096C54.7657 46.6044 54.4022 46.2758 53.9537 46.2758C53.5052 46.2758 53.1417 46.6044 53.1417 47.0096V53.0791C52.5714 52.6424 52.1053 52.4118 52.0696 52.3944C51.829 52.2772 51.5397 52.2771 51.2993 52.3943C50.0194 53.0175 48.003 54.6797 48.0121 57.0438C45.5257 56.3067 43.1544 57.5282 42.1037 58.4367C41.9064 58.6073 41.8171 58.856 41.8662 59.0988C41.8808 59.171 42.1377 60.3835 43.0431 61.5323H38.8119V30.7424L45.0082 25.7973C45.2536 25.6015 45.3449 25.2918 45.2398 25.0116L44.6 23.3051L46.6646 23.4175C47.1026 23.4494 47.5085 23.1203 47.5243 22.7248L47.7132 19.5823L50.0217 20.4652C49.3913 20.7767 48.9974 21.1115 48.9641 21.1403C48.767 21.3109 48.6778 21.5595 48.7269 21.8021C48.9129 22.7237 49.6857 24.2888 51.3663 24.9137C50.4119 26.3116 50.8038 27.9886 51.2522 28.8333C51.4755 29.2658 51.9896 29.2757 52.4707 29.2775C53.5292 29.2774 54.9946 28.9776 55.9717 27.9395C56.645 28.6597 57.6218 29.1086 58.8148 29.2343L61.359 35.9905C61.3939 36.1645 61.3524 36.2351 61.1728 36.3055L54.7656 37.8551V32.5699C54.7656 32.1646 54.4021 31.836 53.9536 31.836C53.5051 31.836 53.1416 32.1646 53.1416 32.5699V44.0743C53.1416 44.4796 53.5051 44.8082 53.9536 44.8082C54.4021 44.8082 54.7656 44.4796 54.7656 44.0743V39.3745L61.5925 37.7233C62.627 37.4939 63.2606 36.4219 62.8963 35.5174V35.5174ZM42.1132 16.6561H33.8861L33.0958 14.4678H42.9036L42.1132 16.6561ZM31.7809 15.5569L32.5205 17.6049C32.5215 17.6079 32.5227 17.6109 32.5238 17.6138L36.3031 28.0785L32.4709 25.0202L33.3249 22.7424C33.4115 22.511 33.3653 22.2558 33.2011 22.0615C33.037 21.8674 32.7771 21.7597 32.5069 21.7744L30.0523 21.908L29.8577 18.6717L31.7809 15.5569ZM25.7901 46.0527C26.0752 46.24 26.4615 46.2397 26.7463 46.0519C27.592 45.4941 28.4925 45.3881 29.4991 45.7277C29.9203 45.8698 30.2745 46.0652 30.519 46.2214C30.4224 46.4779 30.2624 46.8239 30.0137 47.1624C29.422 47.9678 28.6286 48.3594 27.589 48.3594C27.5834 48.3594 27.5777 48.3593 27.5721 48.3593C27.2204 48.3593 26.9086 48.564 26.7998 48.8666C26.6908 49.17 26.8111 49.5022 27.0975 49.6886C27.9467 50.2417 28.3379 50.9823 28.2931 51.9528C28.2745 52.3591 28.1787 52.7242 28.0903 52.9829C27.7906 52.9795 27.3771 52.9496 26.944 52.841C25.9087 52.5814 25.2488 52.0176 24.9269 51.1171C24.8187 50.8141 24.5054 50.6089 24.1532 50.6089C23.8009 50.6089 23.4887 50.8142 23.3804 51.1173C23.2569 51.4629 23.0837 51.7583 22.8582 52.0062V43.4589C23.1681 42.7902 23.7617 42.3045 24.1543 42.0391C24.3943 42.2013 24.7091 42.4455 24.9885 42.7636C25.6565 43.5243 25.8225 44.3311 25.496 45.2302C25.3861 45.5331 25.505 45.8653 25.7901 46.0527V46.0527ZM25.8581 60.3214C26.371 60.0194 27.3161 59.6552 28.2658 60.2818C28.5505 60.4698 28.9368 60.4702 29.2219 60.2828C29.5071 60.0955 29.6261 59.7633 29.5162 59.4605C29.1479 58.4456 29.8316 57.7436 30.3065 57.3984C30.7826 57.7447 31.4644 58.4464 31.0964 59.4605C30.9865 59.7633 31.1055 60.0955 31.3906 60.2828C31.6757 60.47 32.0618 60.4696 32.3468 60.2818C33.2972 59.6546 34.2435 60.0201 34.7549 60.3213C34.5818 60.7193 34.2205 61.3016 33.5403 61.5323H27.0721C26.3927 61.3018 26.0314 60.7195 25.8581 60.3214V60.3214ZM43.5827 59.2354C43.8857 59.0321 44.3642 58.7514 44.9479 58.5472C46.262 58.0873 47.4879 58.2233 48.5911 58.9512C48.876 59.1391 49.2621 59.1393 49.5474 58.9519C49.8325 58.7645 49.9513 58.4322 49.8413 58.1296C49.0306 55.8972 50.8454 54.4416 51.6811 53.9101C52.0734 54.1625 52.6875 54.6225 53.1418 55.2631V61.2877C53.1418 61.4226 53.0205 61.5323 52.8711 61.5323H45.2894C44.2738 60.8748 43.784 59.8111 43.5827 59.2354V59.2354ZM35.8951 61.5324C36.3457 60.8664 36.4808 60.2322 36.4906 60.184C36.5397 59.9413 36.4504 59.6926 36.2531 59.522C35.6266 58.9802 34.2767 58.2689 32.8034 58.5263C32.6199 57.1807 31.4551 56.2394 30.6919 55.868C30.4517 55.751 30.1623 55.7511 29.9221 55.8679C29.1585 56.2393 27.9931 57.1806 27.8094 58.5263C26.3365 58.2689 24.9862 58.9803 24.3596 59.522C24.1623 59.6926 24.073 59.9413 24.1221 60.184C24.1318 60.2322 24.267 60.8664 24.7176 61.5324H23.129C22.9796 61.5324 22.8583 61.4227 22.8583 61.2878V53.8696C23.3673 53.6174 23.8022 53.2879 24.1542 52.8883C25.2347 54.1095 26.9107 54.4583 28.1127 54.4583C28.6145 54.4511 29.1586 54.4635 29.3944 54.0106C29.902 53.055 30.345 51.1376 29.2029 49.5718C31.1443 48.9111 32.0319 47.1248 32.2424 46.0821C32.2915 45.8393 32.2022 45.5906 32.0048 45.4201C31.157 44.6872 29.2766 43.7111 27.2744 44.2077C27.1797 42.3327 25.5722 41.0174 24.5392 40.5146C24.299 40.3976 24.0097 40.3977 23.7695 40.5146C23.7351 40.5313 23.339 40.7275 22.8582 41.0985V32.57C22.8582 32.1647 22.4947 31.8361 22.0462 31.8361C21.5977 31.8361 21.2342 32.1647 21.2342 32.57V37.8552L14.827 36.3056C14.6474 36.2351 14.6058 36.1647 14.6408 35.9905L16.3305 31.5037C17.685 31.3632 18.786 30.8424 19.5265 30.007C20.5946 31.2059 22.2454 31.5489 23.4301 31.5489C23.9295 31.5423 24.4702 31.552 24.7043 31.1015C25.2045 30.1594 25.6409 28.2715 24.5216 26.7259C26.4316 26.0696 27.305 24.3097 27.5124 23.2815C27.5612 23.0388 27.472 22.7902 27.2748 22.6197C26.6128 22.0474 25.314 21.3256 23.8215 21.29L28.2859 19.5826L28.4748 22.7248C28.4866 22.9199 28.5839 23.1028 28.7452 23.2328C28.9066 23.3628 29.1179 23.4298 29.3344 23.4176L31.3991 23.3052L30.7595 25.0117C30.6545 25.2918 30.7458 25.6016 30.9912 25.7974L37.188 30.743V61.5324H35.8951ZM45.9469 21.9081L43.4923 21.7745C43.2221 21.7599 42.9622 21.8675 42.7981 22.0616C42.634 22.2559 42.5877 22.5112 42.6744 22.7425L43.5283 25.0203L39.6964 28.0785L41.3957 23.3731C41.5349 22.9878 41.302 22.5735 40.8758 22.4477C40.4489 22.3217 39.9911 22.5324 39.8519 22.9176L37.9997 28.0464L34.4162 18.1235H41.5832L40.859 20.1286C40.7199 20.5139 40.9527 20.9282 41.379 21.054C41.8052 21.1797 42.2636 20.9694 42.4029 20.5841L43.4759 17.6129C43.4768 17.6104 43.4779 17.6077 43.4787 17.6052L44.2184 15.5568L46.1416 18.6717L45.9469 21.9081ZM56.7453 26.213C56.637 25.91 56.3239 25.7046 55.9717 25.7046C55.6194 25.7046 55.3072 25.91 55.1989 26.213C54.9256 26.9783 54.365 27.4579 53.485 27.6796C53.1417 27.7661 52.812 27.7952 52.5599 27.8018C52.4894 27.5827 52.4192 27.2906 52.4049 26.9691C52.3687 26.1443 52.7022 25.5149 53.4245 25.0447C53.7108 24.8582 53.8311 24.526 53.7222 24.2227C53.6135 23.9201 53.3016 23.7154 52.9498 23.7154C52.9451 23.7153 52.9407 23.7155 52.9361 23.7154C52.0516 23.7154 51.3759 23.3827 50.8713 22.6988C50.6737 22.4311 50.5407 22.1573 50.4555 21.943C50.8855 21.6782 51.6444 21.3172 52.4731 21.4027L56.3245 22.8755C56.3955 22.9027 56.4504 22.9561 56.4753 23.022L58.2019 27.6072C57.5854 27.3976 57.0214 26.9856 56.7453 26.213V26.213Z" fill="black"/>
<path d="M45.7542 40.8058C46.017 40.9538 46.3501 40.9538 46.6129 40.8058L50.1311 38.8251C50.3693 38.6912 50.5139 38.4556 50.5139 38.2022V33.0576C50.5139 32.6524 50.1504 32.3238 49.7019 32.3238H42.6651C42.2166 32.3238 41.8531 32.6523 41.8531 33.0576V38.2022C41.8531 38.4556 41.9978 38.6911 42.2359 38.8251L45.7542 40.8058ZM43.4772 33.7914H48.8899V37.7947L46.1835 39.3183L43.4772 37.7947V33.7914Z" fill="black"/>
<path d="M50.9013 46.1734C50.9504 45.9307 50.8611 45.6821 50.6638 45.5115C50.1115 45.034 48.9368 44.4108 47.6435 44.5959C47.4386 43.4264 46.421 42.6091 45.748 42.2816C45.5075 42.1646 45.2183 42.1646 44.9781 42.2816C44.305 42.6091 43.2875 43.4264 43.0827 44.5959C41.7898 44.4116 40.6146 45.0341 40.0623 45.5116C39.865 45.6821 39.7759 45.9308 39.8248 46.1735C39.9618 46.8528 40.5073 47.9788 41.6736 48.516C41.079 49.5698 41.369 50.7708 41.6995 51.3931C41.8963 51.7795 42.3488 51.8382 42.7851 51.8296C43.5556 51.8296 44.6034 51.6254 45.3631 50.939C46.2904 51.7767 47.6464 51.8962 48.4044 51.8028C48.6748 51.7695 48.9086 51.6156 49.0267 51.3931C49.3572 50.7707 49.6472 49.5697 49.0526 48.5159C50.2186 47.9786 50.7643 46.8526 50.9013 46.1734V46.1734ZM47.5947 47.3515C47.5915 47.3515 47.5881 47.3515 47.5851 47.3515C47.2334 47.3515 46.9215 47.5562 46.8128 47.8589C46.7039 48.1622 46.8243 48.4944 47.1105 48.6808C47.8656 49.1725 47.8319 49.8996 47.7129 50.3535C47.1996 50.3168 46.4304 50.1243 46.1407 49.3356C46.114 49.2554 46.0725 49.1811 46.0192 49.1151C45.9847 49.0725 45.9454 49.0335 45.9021 48.9988C45.7595 48.8844 45.5722 48.8147 45.3668 48.8139C45.3665 48.8139 45.3663 48.8139 45.3661 48.8139C45.3659 48.8139 45.3655 48.8139 45.3648 48.8139C45.3645 48.8139 45.3639 48.8139 45.3632 48.8139H45.3625C45.3621 48.8139 45.3617 48.8139 45.3614 48.8139C45.3604 48.8139 45.3605 48.8139 45.3602 48.8139C45.3595 48.8139 45.3592 48.8139 45.359 48.8139C45.1845 48.8146 45.0232 48.8649 44.8912 48.9502C44.7524 49.0395 44.6448 49.1683 44.5898 49.3222C44.3036 50.1229 43.5276 50.3169 43.0132 50.3538C42.8936 49.8985 42.8605 49.1722 43.6151 48.6808C43.9015 48.4944 44.0217 48.1622 43.9128 47.8589C43.8041 47.5563 43.4923 47.3515 43.1405 47.3515C43.1375 47.3516 43.1342 47.3515 43.131 47.3515C42.2046 47.3515 41.7612 46.747 41.5631 46.3176C42.0048 46.0735 42.7584 45.8194 43.5097 46.3151C43.7944 46.503 44.1809 46.5034 44.4658 46.316C44.751 46.1286 44.8698 45.7964 44.7598 45.4936C44.4696 44.6942 44.9704 44.1245 45.3623 43.821C45.7555 44.1255 46.2554 44.6949 45.9654 45.4936C45.8554 45.7964 45.9742 46.1286 46.2594 46.316C46.5444 46.5034 46.9308 46.503 47.2156 46.3151C47.9673 45.819 48.7216 46.0739 49.1619 46.3172C48.9638 46.7481 48.5204 47.3515 47.5947 47.3515V47.3515Z" fill="black"/>
<path d="M32.9996 31.8314C32.7948 30.662 31.7772 29.8447 31.1042 29.5171C30.8638 29.4001 30.5745 29.4001 30.3343 29.5171C29.6613 29.8447 28.6437 30.662 28.4388 31.8314C27.1452 31.6471 25.9707 32.2696 25.4184 32.7471C25.2211 32.9177 25.1319 33.1664 25.1809 33.409C25.318 34.0883 25.8635 35.2143 27.0298 35.7515C26.4352 36.8053 26.7252 38.0063 27.0557 38.6287C27.1738 38.851 27.4076 39.005 27.678 39.0383C28.436 39.1317 29.7918 39.0123 30.7193 38.1747C31.479 38.861 32.5268 39.0652 33.2973 39.0652C33.7334 39.0739 34.1863 39.0149 34.3829 38.6288C34.7134 38.0064 35.0033 36.8053 34.4088 35.7515C35.5748 35.2143 36.1206 34.0883 36.2576 33.4091C36.3066 33.1664 36.2174 32.9178 36.0201 32.7472C35.4677 32.2695 34.2926 31.6469 32.9996 31.8314V31.8314ZM32.9509 34.5871C32.9478 34.5871 32.9444 34.5871 32.9414 34.5871C32.5897 34.5871 32.2777 34.7917 32.169 35.0943C32.0601 35.3977 32.1805 35.7298 32.4667 35.9164C33.2225 36.4085 33.1882 37.1363 33.0689 37.5901C32.5607 37.5539 31.7878 37.3629 31.497 36.5711C31.3012 35.8981 30.1583 35.8841 29.9462 36.5577C29.66 37.3584 28.8841 37.5524 28.3696 37.5892C28.25 37.1339 28.217 36.4077 28.9717 35.9163C29.258 35.7297 29.3783 35.3976 29.2694 35.0942C29.1607 34.7916 28.8488 34.587 28.497 34.587C28.494 34.5871 28.4907 34.587 28.4875 34.587C27.5606 34.587 27.117 33.9815 26.9191 33.552C27.3563 33.3102 28.1119 33.0529 28.866 33.5505C29.151 33.7385 29.5373 33.7388 29.8223 33.5514C30.1074 33.364 30.2263 33.0318 30.1163 32.729C29.8261 31.9296 30.327 31.3599 30.7188 31.0564C31.112 31.3608 31.6118 31.9303 31.3218 32.729C31.2118 33.0318 31.3307 33.364 31.6158 33.5514C31.9008 33.7387 32.2873 33.7383 32.572 33.5505C33.3248 33.0538 34.0793 33.3097 34.5194 33.5531C34.3231 33.9799 33.8801 34.5871 32.9509 34.5871Z" fill="black"/>
</svg>
