<svg width="76" height="76" viewBox="0 0 76 76" fill="none" xmlns="http://www.w3.org/2000/svg">
<circle cx="38" cy="38" r="38" fill="#D9D9D9"/>
<path d="M56.0659 56.2V41.5694L56.3678 40.1286C57.1321 36.4762 57.522 32.7615 57.532 29.0369L59.8062 23.6104C60.0382 23.0509 60.0627 22.4326 59.8757 21.8581C59.6887 21.2835 59.3015 20.7872 58.7783 20.4517L58.7262 20.4185C57.071 19.3613 55.1242 18.7969 53.1326 18.7969C51.141 18.7969 49.1942 19.3613 47.5391 20.4185L47.487 20.4517C46.9638 20.7872 46.5766 21.2835 46.3896 21.858C46.2026 22.4326 46.2271 23.0509 46.4591 23.6104L48.7332 29.037C48.7432 32.7615 49.1331 36.4762 49.8974 40.1286L50.1993 41.5694V56.2C50.1993 56.9426 50.5084 57.6548 51.0585 58.1799C51.6087 58.705 52.3548 59 53.1328 59C53.9109 59 54.657 58.705 55.2072 58.1799C55.7573 57.6548 56.0664 56.9426 56.0664 56.2H56.0659ZM49.962 28.2001L47.8206 23.0901C47.7123 22.829 47.7009 22.5404 47.7881 22.2723C47.8754 22.0041 48.0561 21.7725 48.3003 21.6159L48.3524 21.5828C49.7668 20.6794 51.4304 20.1971 53.1323 20.1971C54.8342 20.1971 56.4978 20.6794 57.9123 21.5828L57.9644 21.6159C58.2087 21.7725 58.3894 22.0041 58.4767 22.2723C58.564 22.5404 58.5526 22.829 58.4444 23.0901L56.3028 28.2001H54.7603L55.3182 25.5374C55.3377 25.447 55.3383 25.3539 55.32 25.2633C55.3016 25.1727 55.2647 25.0865 55.2113 25.0096C55.1579 24.9327 55.0891 24.8666 55.0089 24.8152C54.9286 24.7637 54.8385 24.7279 54.7438 24.7098C54.649 24.6917 54.5514 24.6917 54.4566 24.7097C54.3618 24.7277 54.2717 24.7635 54.1914 24.8149C54.1111 24.8663 54.0423 24.9323 53.9888 25.0092C53.9354 25.0861 53.8984 25.1723 53.88 25.2628L53.2649 28.2001H53.0006L52.3849 25.2628C52.3665 25.1723 52.3295 25.0861 52.276 25.0092C52.2226 24.9323 52.1537 24.8663 52.0735 24.8149C51.9932 24.7635 51.9031 24.7277 51.8083 24.7097C51.7135 24.6917 51.6159 24.6917 51.5211 24.7098C51.4263 24.7279 51.3362 24.7637 51.256 24.8152C51.1758 24.8666 51.107 24.9327 51.0536 25.0096C51.0002 25.0865 50.9633 25.1727 50.9449 25.2633C50.9265 25.3539 50.9271 25.447 50.9466 25.5374L51.5048 28.2001H49.962ZM54.5991 56.2C54.5991 56.5713 54.4446 56.9274 54.1695 57.1899C53.8945 57.4525 53.5214 57.6 53.1324 57.6C52.7434 57.6 52.3703 57.4525 52.0952 57.1899C51.8202 56.9274 51.6656 56.5713 51.6656 56.2V42.2H54.5991V56.2ZM54.7317 40.8001H51.5334L51.3352 39.854C50.6282 36.4765 50.2492 33.044 50.2031 29.6001H56.061C56.0426 31.0008 55.9684 32.4008 55.8384 33.8001H53.8658C53.6713 33.8001 53.4847 33.8738 53.3472 34.0051C53.2096 34.1364 53.1324 34.3144 53.1324 34.5001C53.1324 34.6857 53.2096 34.8638 53.3472 34.995C53.4847 35.1263 53.6713 35.2001 53.8658 35.2001H55.691C55.5054 36.7619 55.2515 38.3133 54.9294 39.854L54.7317 40.8001Z" fill="black"/>
<path d="M45.2788 38.1776L43.8402 37.7201C43.5922 37.6412 43.3281 37.6197 43.0696 37.6573C42.8112 37.6949 42.5658 37.7906 42.3537 37.9365C42.1416 38.0824 41.9688 38.2743 41.8497 38.4964C41.7305 38.7186 41.6684 38.9645 41.6683 39.2141V46.4001C41.4738 46.4001 41.2873 46.4738 41.1497 46.6051C41.0122 46.7364 40.9349 46.9144 40.9349 47.1001V58.3C40.9349 58.4857 41.0122 58.6637 41.1497 58.795C41.2873 58.9263 41.4738 59 41.6683 59H47.5354C47.7299 59 47.9164 58.9263 48.0539 58.795C48.1915 58.6637 48.2687 58.4857 48.2687 58.3V47.1001C48.2687 46.9144 48.1915 46.7364 48.0539 46.6051C47.9164 46.4738 47.7299 46.4001 47.5354 46.4001V41.166C47.536 40.5047 47.3183 39.8601 46.9132 39.3236C46.5081 38.7871 45.9362 38.3861 45.2788 38.1776ZM43.1351 39.2141C43.135 39.1863 43.1419 39.159 43.1551 39.1342C43.1684 39.1095 43.1876 39.0882 43.2111 39.0719C43.2347 39.0557 43.262 39.045 43.2908 39.0408C43.3195 39.0366 43.3489 39.039 43.3765 39.0478L44.8149 39.5054C45.1802 39.6213 45.498 39.8442 45.723 40.1423C45.9481 40.4404 46.069 40.7986 46.0686 41.166V46.4001H43.1351V39.2141ZM46.802 57.6H42.4017V50.6001H46.802V57.6ZM46.802 49.2001H42.4017V47.8001H46.802V49.2001Z" fill="black"/>
<path d="M16 52.7V53.05C16.0019 54.6275 16.6592 56.1399 17.8279 57.2553C18.9965 58.3708 20.581 58.9982 22.2337 59H33.2345C34.8872 58.9982 36.4717 58.3708 37.6403 57.2553C38.809 56.1399 39.4663 54.6275 39.4682 53.05V52.7C39.4682 52.5144 39.3909 52.3363 39.2534 52.2051C39.1159 52.0738 38.9293 52 38.7348 52H37.0114C37.7534 50.5063 38.0875 48.8577 37.9826 47.2076C37.8776 45.5575 37.3371 43.9595 36.4112 42.5625C35.4853 41.1654 34.2042 40.0145 32.687 39.2171C31.1699 38.4196 29.4661 38.0014 27.7341 38.0014C26.0021 38.0014 24.2983 38.4196 22.7812 39.2171C21.264 40.0145 19.9829 41.1654 19.057 42.5625C18.1311 43.9595 17.5906 45.5575 17.4856 47.2076C17.3807 48.8577 17.7148 50.5063 18.4568 52H16.7334C16.5389 52 16.3523 52.0738 16.2148 52.2051C16.0773 52.3363 16 52.5144 16 52.7V52.7ZM27.7341 39.4001C29.2789 39.4002 30.7964 39.7884 32.1342 40.5257C33.472 41.263 34.5829 42.3233 35.3554 43.6002C36.1278 44.8771 36.5345 46.3256 36.5347 47.8C36.5348 49.2745 36.1284 50.723 35.3562 52H33.6036C34.4208 50.9599 34.9185 49.723 35.0407 48.4281C35.163 47.1332 34.9051 45.8314 34.2959 44.6685C33.6866 43.5057 32.7502 42.5277 31.5915 41.8442C30.4327 41.1607 29.0975 40.7986 27.7353 40.7986C26.3732 40.7986 25.0379 41.1607 23.8792 41.8442C22.7205 42.5277 21.784 43.5057 21.1748 44.6685C20.5656 45.8314 20.3077 47.1332 20.4299 48.4281C20.5522 49.723 21.0498 50.9599 21.867 52H20.112C19.3398 50.723 18.9334 49.2745 18.9335 47.8C18.9337 46.3256 19.3404 44.8771 20.1128 43.6002C20.8853 42.3233 21.9962 41.263 23.334 40.5257C24.6718 39.7884 26.1893 39.4002 27.7341 39.4001ZM28.7648 42.2884C29.3711 42.391 29.9565 42.5849 30.4991 42.8626L23.3626 51.5321C23.0109 51.157 22.7139 50.7383 22.4794 50.2874L28.7648 42.2884ZM21.9356 48.6461C21.8165 47.91 21.8527 47.1586 22.0421 46.4361C22.2314 45.7136 22.5701 45.0344 23.0383 44.4386C23.5065 43.8427 24.0947 43.3422 24.7684 42.9663C25.4421 42.5905 26.1876 42.3469 26.9613 42.2499L21.9356 48.6461ZM31.6964 43.6743C32.297 44.2002 32.7768 44.8393 33.1055 45.5513C33.1055 45.5513 27.8357 51.9608 27.8144 52H24.8427L31.6964 43.6743ZM25.534 53.4H29.9342C30.1287 53.4 30.3153 53.4738 30.4528 53.6051C30.5904 53.7363 30.6676 53.9144 30.6676 54.1C30.6676 54.2857 30.5904 54.4637 30.4528 54.595C30.3153 54.7263 30.1287 54.8 29.9342 54.8H25.534C25.3394 54.8 25.1529 54.7263 25.0154 54.595C24.8778 54.4637 24.8006 54.2857 24.8006 54.1C24.8006 53.9144 24.8778 53.7363 25.0154 53.6051C25.1529 53.4738 25.3394 53.4 25.534 53.4V53.4ZM29.6622 52L33.5725 47.2497C33.5909 47.4309 33.6011 47.6143 33.6011 47.8001C33.6027 48.595 33.4261 49.381 33.0832 50.1054C32.7402 50.8298 32.239 51.4758 31.6129 52H29.6622ZM23.46 53.4C23.3425 53.7168 23.3063 54.0558 23.3546 54.3886C23.4029 54.7214 23.5341 55.0383 23.7373 55.3126C23.9405 55.587 24.2098 55.8108 24.5224 55.9652C24.835 56.1196 25.1819 56.2001 25.534 56.2H29.9342C30.2862 56.2001 30.633 56.1196 30.9456 55.9653C31.2582 55.8109 31.5275 55.5872 31.7307 55.3129C31.9339 55.0386 32.0652 54.7218 32.1135 54.3891C32.1619 54.0563 32.1258 53.7173 32.0084 53.4006L32.0115 53.4H37.9875C37.8937 54.5423 37.3524 55.6089 36.4715 56.3873C35.5907 57.1656 34.4349 57.5987 33.2345 57.6H22.2337C21.0333 57.5987 19.8775 57.1656 18.9967 56.3873C18.1158 55.6089 17.5745 54.5423 17.4807 53.4H23.46Z" fill="black"/>
<path d="M36.8611 27.3825L38.0365 28.1304C38.6017 28.4905 39.059 28.985 39.3631 29.5651L39.5456 29.9135C39.6065 30.0298 39.7001 30.1276 39.816 30.1959C39.9318 30.2642 40.0653 30.3004 40.2015 30.3004C40.3377 30.3004 40.4712 30.2642 40.587 30.1959C40.7029 30.1276 40.7965 30.0298 40.8574 29.9135L41.0399 29.5651C41.344 28.9849 41.8012 28.4903 42.3665 28.1301L43.5419 27.3823C43.6561 27.3096 43.7467 27.2077 43.8033 27.0883C43.8598 26.969 43.8802 26.8368 43.862 26.7069C43.8437 26.577 43.7877 26.4546 43.7002 26.3537C43.6126 26.2527 43.4972 26.1772 43.3669 26.1357C42.7925 25.9515 42.2706 25.6429 41.8422 25.2339C41.4137 24.8249 41.0903 24.3268 40.8973 23.7785C40.8486 23.6391 40.7553 23.5178 40.6304 23.4319C40.5055 23.346 40.3554 23.2997 40.2015 23.2997C40.0475 23.2997 39.8975 23.346 39.7726 23.4319C39.6477 23.5178 39.5544 23.6391 39.5057 23.7785C39.3127 24.3268 38.9893 24.8249 38.5608 25.2339C38.1323 25.6429 37.6104 25.9515 37.036 26.1357C36.9058 26.1772 36.7903 26.2527 36.7028 26.3537C36.6153 26.4546 36.5593 26.577 36.541 26.7069C36.5228 26.8368 36.5432 26.969 36.5997 27.0883C36.6563 27.2077 36.7469 27.3096 36.8611 27.3823V27.3825ZM40.2015 25.5373C40.5959 26.0735 41.0933 26.5335 41.6674 26.8927L41.5529 26.9656C41.0304 27.2983 40.5731 27.7158 40.2015 28.1991C39.83 27.7156 39.3726 27.2981 38.8501 26.9653L38.7356 26.8924C39.3096 26.5333 39.8071 26.0734 40.2015 25.5373Z" fill="black"/>
<path d="M35.2998 30.336C34.7254 30.1518 34.2035 29.8431 33.775 29.4341C33.3466 29.0251 33.0231 28.527 32.8301 27.9787C32.7815 27.8393 32.6881 27.7181 32.5632 27.6321C32.4384 27.5462 32.2883 27.5 32.1344 27.5C31.9804 27.5 31.8304 27.5462 31.7055 27.6321C31.5806 27.7181 31.4872 27.8393 31.4386 27.9787C31.2456 28.527 30.9222 29.0251 30.4937 29.4341C30.0652 29.8431 29.5433 30.1518 28.9689 30.336C28.8386 30.3774 28.7232 30.4529 28.6357 30.5539C28.5482 30.6549 28.4921 30.7773 28.4739 30.9072C28.4557 31.037 28.476 31.1692 28.5326 31.2886C28.5892 31.408 28.6798 31.5098 28.794 31.5825L29.9693 32.3304C30.5346 32.6905 30.9918 33.185 31.2959 33.7651L31.4784 34.1135C31.5394 34.2298 31.633 34.3276 31.7488 34.3959C31.8647 34.4642 31.9982 34.5004 32.1344 34.5004C32.2705 34.5004 32.404 34.4642 32.5199 34.3959C32.6357 34.3276 32.7294 34.2298 32.7903 34.1135L32.9728 33.7651C33.2769 33.1849 33.7341 32.6903 34.2994 32.3301L35.4747 31.5822C35.589 31.5096 35.6795 31.4077 35.7361 31.2883C35.7927 31.1689 35.813 31.0368 35.7948 30.9069C35.7766 30.777 35.7205 30.6546 35.633 30.5536C35.5455 30.4527 35.4301 30.3772 35.2998 30.3357V30.336ZM33.4858 31.1656C32.9633 31.4983 32.5059 31.9157 32.1344 32.3991C31.7628 31.9156 31.3054 31.4981 30.7829 31.1653L30.6684 31.0924C31.2425 30.7333 31.7399 30.2734 32.1344 29.7372C32.5287 30.2735 33.0262 30.7335 33.6003 31.0927L33.4858 31.1656Z" fill="black"/>
<path d="M37.2329 21.8301L38.4082 21.0823C38.5223 21.0096 38.6128 20.9077 38.6694 20.7884C38.7259 20.669 38.7462 20.5369 38.728 20.4071C38.7098 20.2772 38.6538 20.1549 38.5663 20.0539C38.4788 19.953 38.3635 19.8775 38.2333 19.836C37.6589 19.6518 37.137 19.3431 36.7085 18.9342C36.28 18.5252 35.9566 18.027 35.7636 17.4788C35.715 17.3394 35.6216 17.2181 35.4967 17.1322C35.3718 17.0462 35.2218 17 35.0678 17C34.9139 17 34.7638 17.0462 34.6389 17.1322C34.5141 17.2181 34.4207 17.3394 34.372 17.4788C34.179 18.027 33.8556 18.5252 33.4272 18.9342C32.9987 19.3431 32.4768 19.6518 31.9024 19.836C31.7721 19.8775 31.6567 19.953 31.5692 20.0539C31.4817 20.1549 31.4256 20.2773 31.4074 20.4072C31.3891 20.5371 31.4095 20.6692 31.4661 20.7886C31.5227 20.908 31.6132 21.0099 31.7275 21.0825L32.9028 21.8301C33.4681 22.1903 33.9253 22.6849 34.2294 23.2651L34.4119 23.6136C34.4728 23.7298 34.5665 23.8276 34.6823 23.8959C34.7982 23.9642 34.9316 24.0004 35.0678 24.0004C35.204 24.0004 35.3375 23.9642 35.4534 23.8959C35.5692 23.8276 35.6628 23.7298 35.7237 23.6136L35.9063 23.2651C36.2103 22.6849 36.6675 22.1903 37.2329 21.8301V21.8301ZM35.0678 21.8991C34.6963 21.4156 34.2389 20.9981 33.7164 20.6653L33.6019 20.5925C34.176 20.2333 34.6734 19.7734 35.0678 19.2373C35.4622 19.7735 35.9597 20.2335 36.5338 20.5927L36.4193 20.6656C35.8968 20.9983 35.4394 21.4158 35.0678 21.8991V21.8991Z" fill="black"/>
</svg>
