<svg width="76" height="76" viewBox="0 0 76 76" fill="none" xmlns="http://www.w3.org/2000/svg">
<circle cx="38" cy="38" r="38" fill="#D9D9D9"/>
<path d="M46.0625 46.8798L44.6376 46.4039V31.1583C44.6376 30.6459 44.2227 30.2302 43.7114 30.2302C43.2001 30.2302 42.7852 30.6459 42.7852 31.1583V31.5707H40.374C39.9717 30.3417 38.8278 29.51 37.5369 29.5084H24.1588C22.868 29.51 21.7241 30.3417 21.3218 31.5707H18.9105V31.1583C18.9105 30.6459 18.4957 30.2302 17.9843 30.2302C17.473 30.2302 17.0582 30.6459 17.0582 31.1583V46.4039L15.6332 46.8798C15.2553 47.0061 15 47.3606 15 47.7602V58.0719C15 58.5843 15.4148 59 15.9262 59H45.7696C46.2809 59 46.6957 58.5843 46.6957 58.0719V47.7602C46.6957 47.3606 46.4404 47.0061 46.0625 46.8798ZM18.9105 33.4269H22.1007C22.612 33.4269 23.0268 33.0112 23.0268 32.4988C23.0275 31.873 23.5343 31.3652 24.1588 31.3645H37.5369C38.1614 31.3652 38.6683 31.873 38.6689 32.4988C38.6689 33.0112 39.0838 33.4269 39.5951 33.4269H42.7852V45.7852L40.5213 45.0289V41.7794C40.5213 41.267 40.1064 40.8513 39.5951 40.8513H35.8904V37.964C35.8891 36.8826 35.0144 36.0061 33.9351 36.0048H27.7606C26.6814 36.0061 25.8067 36.8826 25.8054 37.964V40.8513H22.1007C21.5893 40.8513 21.1745 41.267 21.1745 41.7794V45.0289L18.9105 45.7852V33.4269ZM34.038 40.8513H27.6577V37.964C27.6577 37.9073 27.704 37.8609 27.7606 37.8609H33.9351C33.9917 37.8609 34.038 37.9073 34.038 37.964V40.8513ZM38.6689 42.7074V44.7698H23.0268V42.7074H38.6689ZM16.8523 48.4292L22.2512 46.6259H39.4446L44.8434 48.4292V54.0504H16.8523V48.4292ZM16.8523 57.1439V55.9065H44.8434V57.1439H16.8523Z" fill="black"/>
<path d="M60.0738 44.4604H55.3401V41.0575H58.4273C58.6994 41.0575 58.9579 40.9377 59.1342 40.7292C59.3101 40.5213 59.3856 40.2458 59.3409 39.9767L58.3119 33.7897C58.2376 33.3424 57.851 33.0144 57.3982 33.0144H51.2237C50.7709 33.0144 50.3844 33.3424 50.3101 33.7897L49.281 39.9767C49.2363 40.2458 49.3119 40.5213 49.4878 40.7292C49.664 40.9377 49.9226 41.0575 50.1946 41.0575H53.4877V44.4604H48.7539C48.2426 44.4604 47.8278 44.8761 47.8278 45.3885V48.482C47.8278 48.9944 48.2426 49.4101 48.7539 49.4101H49.8859V54.9784C49.8859 55.4908 50.3008 55.9065 50.8121 55.9065C51.3234 55.9065 51.7383 55.4908 51.7383 54.9784V49.4101H57.0895V54.9784C57.0895 55.4908 57.5044 55.9065 58.0157 55.9065C58.527 55.9065 58.9419 55.4908 58.9419 54.9784V49.4101H60.0738C60.5852 49.4101 61 48.9944 61 48.482V45.3885C61 44.8761 60.5852 44.4604 60.0738 44.4604ZM52.0084 34.8705H56.6136L57.3339 39.2014H51.288L52.0084 34.8705ZM59.1477 47.5539H49.6801V46.3165H59.1477V47.5539Z" fill="black"/>
<path d="M48.7025 16.9281V26.3117C48.7025 26.8241 49.1174 27.2398 49.6287 27.2398H58.9933C59.5047 27.2398 59.9195 26.8241 59.9195 26.3117V16.9281C59.9195 16.4157 59.5047 16 58.9933 16H49.6287C49.1174 16 48.7025 16.4157 48.7025 16.9281ZM50.5549 17.8561H58.0672V25.3837H50.5549V17.8561Z" fill="black"/>
</svg>
